<?xml version="1.0" encoding="UTF-8"?>
<svg width="50px" height="50px" viewBox="0 0 24 24" version="1.1" xmlns="http://www.w3.org/2000/svg">
    <g stroke="none" stroke-width="1" fill="none" fill-rule="evenodd">
        <path d="M14,13 L14,17 C14,17.5522847 13.5522847,18 13,18 L11,18 C10.4477153,18 10,17.5522847 10,17 L10,13 L7,13 C6.44771525,13 6,12.5522847 6,12 C6,11.4477153 6.44771525,11 7,11 L10,11 L10,7 C10,6.44771525 10.4477153,6 11,6 L13,6 C13.5522847,6 14,6.44771525 14,7 L14,11 L17,11 C17.5522847,11 18,11.4477153 18,12 C18,12.5522847 17.5522847,13 17,13 L14,13 Z" fill="#4a90e2"/>
    </g>
</svg>
